<svg data-v-423bf9ae="" xmlns="http://www.w3.org/2000/svg" viewBox="0 0 542 90" class="iconLeft"><!----><!----><!----><g data-v-423bf9ae="" id="02fcc85b-72b1-4d51-8cd8-50675eeb939b" fill="black" transform="matrix(5.940593835033989,0,0,5.940593835033989,245.42207996050087,-4.2475247974197785)"><path d="M8.18 6.36C7.01 6.36 6.43 6.80 6.01 7.41C5.59 6.66 4.86 6.36 4.10 6.36C3.34 6.36 2.65 6.72 2.27 7.38L2.11 6.53L0.88 6.53L0.88 13.15L2.29 13.15L2.29 9.26C2.38 8.15 2.90 7.57 3.75 7.57C4.65 7.57 5.02 8.31 5.02 9.39L5.02 13.15L6.43 13.15L6.43 9.60C6.43 8.30 6.96 7.57 7.88 7.57C8.79 7.57 9.16 8.31 9.16 9.38L9.16 13.15L10.57 13.15L10.57 9.28C10.57 7.12 9.44 6.36 8.18 6.36ZM15.44 13.34C17.53 13.34 18.99 11.81 18.99 9.84C18.99 7.89 17.53 6.36 15.44 6.36C13.33 6.36 11.89 7.89 11.89 9.84C11.89 11.81 13.33 13.34 15.44 13.34ZM15.44 12.13C14.22 12.13 13.36 11.14 13.36 9.84C13.36 8.56 14.22 7.57 15.44 7.57C16.65 7.57 17.51 8.56 17.51 9.84C17.51 11.14 16.65 12.13 15.44 12.13ZM23.83 6.36C22.90 6.36 22.20 6.75 21.79 7.32L21.61 6.53L20.37 6.53L20.37 13.15L21.79 13.15L21.79 9.11C21.90 7.95 22.69 7.57 23.44 7.57C24.46 7.57 24.89 8.30 24.89 9.38L24.89 13.15L26.31 13.15L26.31 9.06C26.31 7 24.98 6.36 23.83 6.36ZM33.21 6.53L33.02 7.45C32.51 6.78 31.73 6.36 30.71 6.36C28.99 6.36 27.62 7.69 27.62 9.84C27.62 12.00 28.99 13.31 30.71 13.31C31.72 13.31 32.49 12.89 33.00 12.22L33.21 13.15L34.37 13.15L34.37 6.53ZM31.05 12.12C29.85 12.12 29.06 11.14 29.06 9.84C29.06 8.55 29.85 7.55 31.05 7.55C32.29 7.55 33.09 8.55 33.09 9.84C33.09 11.14 32.29 12.12 31.05 12.12ZM42.38 13.15L38.82 9.54L41.97 6.53L40.12 6.53L37.54 9.04L37.54 3.24L36.12 3.24L36.12 13.15L37.54 13.15L37.54 10.06L40.50 13.15ZM46.35 13.34C48.43 13.34 49.89 11.81 49.89 9.84C49.89 7.89 48.43 6.36 46.35 6.36C44.23 6.36 42.79 7.89 42.79 9.84C42.79 11.81 44.23 13.34 46.35 13.34ZM46.35 12.13C45.12 12.13 44.26 11.14 44.26 9.84C44.26 8.56 45.12 7.57 46.35 7.57C47.56 7.57 48.42 8.56 48.42 9.84C48.42 11.14 47.56 12.13 46.35 12.13Z"></path></g><!----><g data-v-423bf9ae="" id="32948dba-9c05-43ae-bc42-954e2ab3c4bb" transform="matrix(2.6636680169622413,0,0,2.6636680169622413,-17.476386096047207,-88.07572259357838)" stroke="none" fill="black"><path d="M91.798 63.895c-1.854 0-3.604-.766-4.964-2.147-.514-1.441-2.636-6.714-6.92-9.13-.766-.432-2.647-.88-5.324-1.327-1.153-1.764-3.122-3.66-4.417-4.817 1.202-1.057 3.543-2.683 7.239-3.497a1.5 1.5 0 0 0 .417-2.77 15.627 15.627 0 0 0-.544-.289l2.71-2.744a1.5 1.5 0 0 0-.707-2.51c-6.3-1.559-6.505-1.559-6.722-1.559-.177 0-.353.031-.519.092l-7.715 2.841c-23.445-3.533-31.546 2.51-37.486 6.953-.413.309-.815.605-1.216.899-7.241.726-13.76 1.943-17.738 2.785l-.004.006a1.466 1.466 0 0 0-.46.177 1.499 1.499 0 0 0-.509 2.059c4.813 7.974 10.32 12.001 13.304 13.861a6.77 6.77 0 0 1-3.702 1.115 1.5 1.5 0 1 0 0 3c2.299 0 4.479-.798 6.271-2.271 1.794 1.475 3.975 2.272 6.273 2.271h.001c2.298 0 4.479-.798 6.272-2.271 1.794 1.475 3.976 2.271 6.274 2.271s4.479-.797 6.273-2.271c1.793 1.475 3.973 2.271 6.272 2.271 2.3 0 4.479-.797 6.272-2.271 1.794 1.475 3.975 2.272 6.273 2.271h.002c2.298 0 4.478-.798 6.271-2.271 1.795 1.475 3.977 2.272 6.275 2.271 2.298 0 4.479-.797 6.272-2.271 1.793 1.474 3.974 2.271 6.272 2.271.828 0 1.5-.672 1.5-1.5s-.668-1.498-1.496-1.498zM36.94 46.281c14.734 0 27.903 1.435 30.428 1.727a39.967 39.967 0 0 1 2.802 2.633c-11.665-1.533-31.037-2.973-45.208-3.667 3.858-.413 7.948-.693 11.978-.693zm6.045-5.386c1.227.086 2.567.212 3.992.393a20.915 20.915 0 0 0-1.797 2.132c-1.71-.056-3.467-.098-5.259-.121a20.511 20.511 0 0 1 3.064-2.404zm7.837.992c2.842.526 5.86 1.283 8.849 2.366a304.626 304.626 0 0 0-10.719-.684 13.504 13.504 0 0 1 1.87-1.682zm21.869-5.729c.61.136 1.923.451 3.312.789l-1.647 1.667a42.037 42.037 0 0 0-4.4-1.448l2.735-1.008zm-7.317 3.077a38.98 38.98 0 0 1 7.538 2.042c-2.575 1.106-4.271 2.478-5.216 3.395-7.041-4.048-15.175-5.772-21.5-6.476 4.873-.492 11.062-.293 19.178 1.039zm-29.29 1.52a47.961 47.961 0 0 1 2.192-.039 24.929 24.929 0 0 0-2.445 2.577c-1.5.018-3.002.07-4.496.152 1.387-.946 2.927-1.873 4.749-2.69zm37.999 20.792c-.569-.622-1.644-.618-2.211 0-1.388 1.514-3.222 2.348-5.165 2.348h-.002c-1.944 0-3.78-.834-5.169-2.348a1.5 1.5 0 0 0-1.105-.486h-.001a1.5 1.5 0 0 0-1.105.487c-1.386 1.513-3.221 2.347-5.165 2.347s-3.778-.834-5.166-2.348a1.502 1.502 0 0 0-2.21 0c-1.389 1.515-3.224 2.348-5.168 2.348s-3.78-.833-5.168-2.348c-.568-.619-1.644-.619-2.211 0-1.388 1.514-3.223 2.348-5.167 2.348h-.001c-1.944 0-3.78-.834-5.169-2.348-.096-.104-.72-.497-.72-.497-1.886-1.086-7.295-4.217-12.311-11.55 14.294-.303 64.135 3.791 67.573 5.73 2.935 1.655 4.673 5.286 5.339 6.934-1.29 1.118-2.867 1.73-4.526 1.73-1.946.002-3.782-.832-5.172-2.347z"></path></g><!----></svg>