<svg data-v-423bf9ae="" xmlns="http://www.w3.org/2000/svg" viewBox="0 0 153.76653886277114 60" class="icon"><!----><!----><!----><!----><g data-v-423bf9ae="" id="bc546cac-5dfe-48c5-8b67-ef8f154904bc" transform="matrix(1.7757786779748277,0,0,1.7757786779748277,-11.902953641922522,-58.78714554741164)" stroke="none" fill="white"><path d="M91.798 63.895c-1.854 0-3.604-.766-4.964-2.147-.514-1.441-2.636-6.714-6.92-9.13-.766-.432-2.647-.88-5.324-1.327-1.153-1.764-3.122-3.66-4.417-4.817 1.202-1.057 3.543-2.683 7.239-3.497a1.5 1.5 0 0 0 .417-2.77 15.627 15.627 0 0 0-.544-.289l2.71-2.744a1.5 1.5 0 0 0-.707-2.51c-6.3-1.559-6.505-1.559-6.722-1.559-.177 0-.353.031-.519.092l-7.715 2.841c-23.445-3.533-31.546 2.51-37.486 6.953-.413.309-.815.605-1.216.899-7.241.726-13.76 1.943-17.738 2.785l-.004.006a1.466 1.466 0 0 0-.46.177 1.499 1.499 0 0 0-.509 2.059c4.813 7.974 10.32 12.001 13.304 13.861a6.77 6.77 0 0 1-3.702 1.115 1.5 1.5 0 1 0 0 3c2.299 0 4.479-.798 6.271-2.271 1.794 1.475 3.975 2.272 6.273 2.271h.001c2.298 0 4.479-.798 6.272-2.271 1.794 1.475 3.976 2.271 6.274 2.271s4.479-.797 6.273-2.271c1.793 1.475 3.973 2.271 6.272 2.271 2.3 0 4.479-.797 6.272-2.271 1.794 1.475 3.975 2.272 6.273 2.271h.002c2.298 0 4.478-.798 6.271-2.271 1.795 1.475 3.977 2.272 6.275 2.271 2.298 0 4.479-.797 6.272-2.271 1.793 1.474 3.974 2.271 6.272 2.271.828 0 1.5-.672 1.5-1.5s-.668-1.498-1.496-1.498zM36.94 46.281c14.734 0 27.903 1.435 30.428 1.727a39.967 39.967 0 0 1 2.802 2.633c-11.665-1.533-31.037-2.973-45.208-3.667 3.858-.413 7.948-.693 11.978-.693zm6.045-5.386c1.227.086 2.567.212 3.992.393a20.915 20.915 0 0 0-1.797 2.132c-1.71-.056-3.467-.098-5.259-.121a20.511 20.511 0 0 1 3.064-2.404zm7.837.992c2.842.526 5.86 1.283 8.849 2.366a304.626 304.626 0 0 0-10.719-.684 13.504 13.504 0 0 1 1.87-1.682zm21.869-5.729c.61.136 1.923.451 3.312.789l-1.647 1.667a42.037 42.037 0 0 0-4.4-1.448l2.735-1.008zm-7.317 3.077a38.98 38.98 0 0 1 7.538 2.042c-2.575 1.106-4.271 2.478-5.216 3.395-7.041-4.048-15.175-5.772-21.5-6.476 4.873-.492 11.062-.293 19.178 1.039zm-29.29 1.52a47.961 47.961 0 0 1 2.192-.039 24.929 24.929 0 0 0-2.445 2.577c-1.5.018-3.002.07-4.496.152 1.387-.946 2.927-1.873 4.749-2.69zm37.999 20.792c-.569-.622-1.644-.618-2.211 0-1.388 1.514-3.222 2.348-5.165 2.348h-.002c-1.944 0-3.78-.834-5.169-2.348a1.5 1.5 0 0 0-1.105-.486h-.001a1.5 1.5 0 0 0-1.105.487c-1.386 1.513-3.221 2.347-5.165 2.347s-3.778-.834-5.166-2.348a1.502 1.502 0 0 0-2.21 0c-1.389 1.515-3.224 2.348-5.168 2.348s-3.78-.833-5.168-2.348c-.568-.619-1.644-.619-2.211 0-1.388 1.514-3.223 2.348-5.167 2.348h-.001c-1.944 0-3.78-.834-5.169-2.348-.096-.104-.72-.497-.72-.497-1.886-1.086-7.295-4.217-12.311-11.55 14.294-.303 64.135 3.791 67.573 5.73 2.935 1.655 4.673 5.286 5.339 6.934-1.29 1.118-2.867 1.73-4.526 1.73-1.946.002-3.782-.832-5.172-2.347z"></path></g><!----></svg>